# xmcd
#
# Track frame offsets: 
#        150
#        11838
#        26183
#        43320
#        61491
#        81916
#        100451
#        120381
#        140806
#        155155
#        170427
#        179634
#
# Disc length: 2566 seconds
#
# Revision: 0
# Processed by: cddbd v1.5.2PL0 Copyright (c) Steve Scherf et al.
# Submitted via: ExactAudioCopy v0.99pb3
#
DISCID=b30a040c
DTITLE=Daddy Long Legs - King For A Day
DYEAR=2008
DGENRE=Blues
TTITLE0=King For A Day
TTITLE1=Tell One Lie
TTITLE2=What I Don't Know
TTITLE3=Guilty
TTITLE4=Hide My Tears
TTITLE5=One Drink Too Many
TTITLE6=Deluxe Motel
TTITLE7=Take My Heart
TTITLE8=No Rest For The Wicked
TTITLE9=Last Chance
TTITLE10=Drives The Girls Crazy
TTITLE11=Shiver And Shake
EXTD=
EXTT0=
EXTT1=
EXTT2=
EXTT3=
EXTT4=
EXTT5=
EXTT6=
EXTT7=
EXTT8=
EXTT9=
EXTT10=
EXTT11=
PLAYORDER=
